<svg width="827" height="436" viewBox="0 0 827 436" fill="none" xmlns="http://www.w3.org/2000/svg">
<path fill-rule="evenodd" clip-rule="evenodd" d="M547.9 145.5L574.3 184.4C576.6 186.5 601.9 201.1 622.4 212.2C677.7 242.1 776.7 298.3 827 316.5V431.5L483.9 328.9C461.2 391.1 437.1 436 415 436C392.9 436 367.8 391 343.8 328.7L0 431.5V316.5C50.3 298.4 154.3 242.1 209.6 212.2C230.1 201.1 258.8 186.5 261.2 184.4L286.4 145.4C271 87.8 260.1 34.5 253 0H575L547.9 145.5Z" fill="#e0e0e0"/>
<rect x="406" y="165" width="16" height="190" rx="8" fill="#F4F4F4"/>
</svg>
