<svg width="321" height="344" viewBox="0 0 321 344" fill="none" xmlns="http://www.w3.org/2000/svg">
<path d="M166.493 -6.75371e-06C257.843 0.000130743 325.9 263.559 320.723 344L0.100571 344C-2.73826 259.499 54.5622 -0.000175227 166.493 -6.75371e-06Z" fill="#e0e0e0"/>
<path fill-rule="evenodd" clip-rule="evenodd" d="M265 169.343L245.5 172C244.135 162.97 238.911 149.706 227.707 138.291L241.242 117.753C254.679 135.583 263.382 155.011 265 169.343ZM229.995 104.449C213.521 87.0808 192.508 73.3593 169.666 71L169.666 115.475C188.713 115.998 203.417 120.89 214.593 127.819L229.995 104.449ZM152.333 116.157L152.333 71.3635C129.458 74.5467 109.374 87.8946 93.5808 104.384L110.24 129.662C121.26 123.095 135.154 117.985 152.333 116.157ZM96.7381 139.545L82.2778 117.603C68.1562 136.071 59.1575 156.003 56.9998 169.343L76.0665 169.343C78.5887 161.411 85.124 149.897 96.7381 139.545Z" fill="#F4F4F4"/>
</svg>
